<svg width="505" height="647" viewBox="0 0 505 647" fill="none" xmlns="http://www.w3.org/2000/svg">
<path d="M13.5912 79.8873C9.99115 73.0828 6.24484 66.3592 2.62871 59.5653C0.64795 55.8439 3.22634 56.6178 6.40352 56.6178C19.1303 56.6178 31.8155 57.7324 44.5138 58.4794C79.8652 60.5589 115.409 62.1953 150.83 61.0649C175.031 60.2925 201.323 59.9444 225.189 55.4802C241.772 52.3782 257.862 50.3494 274.624 48.7061C288.687 47.3274 302.923 48.7767 317.026 48.1891C329.537 47.6678 341.923 47.31 354.464 47.31C364.323 47.31 374.183 47.31 384.042 47.31C391.807 47.31 400.185 46.0737 407.311 49.637C416.114 54.0381 413.827 66.1158 413.827 74.1992C413.827 104.56 414.926 135.069 411.965 165.312C405.681 229.5 402.9 294.135 402.658 358.604C402.546 388.283 401.727 417.955 401.727 447.649C401.727 475.009 403.873 502.13 404.467 529.454C404.941 551.222 404.519 573.042 404.519 594.816C404.519 602.518 404.502 608.639 402.658 616.017" stroke="black" stroke-width="3" stroke-linecap="round"/>
<path d="M3.81738 619.74C11.7774 610.523 17.3004 599.465 25.639 590.368C34.1011 581.137 44.6956 573.857 56.2514 569.064C70.5348 563.14 85.7619 559.67 100.722 555.93C123.075 550.341 145.432 544.596 167.945 539.693C223.749 527.537 280.355 514.418 337.502 510.993C366.873 509.233 396.417 509.781 425.823 509.959C451.902 510.117 477.097 511.765 502.716 516.423" stroke="black" stroke-width="3" stroke-linecap="round"/>
<path d="M66.1807 1.70117C67.3569 50.7682 77.1545 97.6251 85.2099 145.714C93.8117 197.064 95.9836 250.86 96.7929 302.861C98.5676 416.884 97.138 531.088 89.4502 644.871" stroke="black" stroke-width="3" stroke-linecap="round"/>
</svg>
