<svg width="403" height="515" viewBox="0 0 403 515" fill="none" xmlns="http://www.w3.org/2000/svg">
<path d="M398.664 33.239C398.226 34.2269 394.71 34.3473 394.177 34.4079C388.184 35.089 382.206 35.0391 376.216 34.3949C369.224 33.6429 362.313 33.4727 355.285 33.4727C350.739 33.4727 346.595 34.5281 342.2 35.5638C339.526 36.1939 336.874 36.2568 334.134 36.2781C329.684 36.3127 325.24 36.5119 320.789 36.5119C310.591 36.5119 300.39 36.5931 290.197 36.9015C279.334 37.2302 268.744 37.8696 257.906 36.382C251.833 35.5484 245.826 34.3524 239.711 33.8364C233.498 33.312 227.318 32.6303 221.128 31.8882C211.42 30.7246 201.307 30.3682 191.534 31.005C182.596 31.5875 173.789 34.0215 164.962 35.4339C155.46 36.9542 145.638 37.2132 136.029 37.2132C123.83 37.2132 111.836 35.6339 99.6793 35.0183C88.7567 34.4652 77.7957 35.2155 66.8694 34.7455C57.2095 34.3301 47.5438 34.1737 37.8852 33.7065C31.5521 33.4002 24.954 33.0671 18.6142 33.5247C15.9213 33.7191 13.4598 34.4079 10.7295 34.4079C7.55792 34.4079 4.11625 34.2575 2.30005 37.2132" stroke="black" stroke-width="4" stroke-linecap="round"/>
<path d="M17.9008 28.4461C17.9008 34.2606 19.9194 40.485 20.8364 46.1923C22.2965 55.2789 22.7371 64.2214 22.5164 73.4137C22.1003 90.7529 21.084 108.088 21.084 125.43C21.084 142.181 21.4023 158.93 21.4023 175.676C21.4023 194.389 23.3357 213.318 21.1901 231.978C19.117 250.009 15.2682 267.898 12.8078 285.89C10.3339 303.981 10.3402 322.876 11.8706 341.077C13.2684 357.701 17.0561 373.913 19.4925 390.383C20.5134 397.285 21.667 404.176 22.3396 411.123C23.0808 418.778 22.7866 426.317 22.6756 433.987C22.5249 444.398 20.0276 454.592 18.9973 464.91C18.2725 472.169 17.1321 479.386 16.5569 486.659C16.2529 490.502 16.6276 494.495 16.6276 498.366C16.6276 501.578 18.2192 504.388 18.2192 507.558C18.2192 508.835 18.1442 510.142 18.2192 511.419C18.3075 512.922 27.3012 512.059 28.087 512.056C41.3568 512.004 54.3833 510.937 67.5934 509.984C79.6905 509.112 91.611 507.176 103.758 506.973C133.798 506.472 163.921 507.902 193.947 506.796C200.271 506.563 206.663 506.314 212.957 505.645C219.694 504.929 226.364 503.531 233.117 502.953C239.762 502.384 246.452 502.465 253.083 501.837C259.973 501.185 266.763 500.877 273.685 500.898C286.506 500.938 299.289 502.174 312.113 502.174C323.979 502.174 335.845 502.174 347.711 502.174C361.958 502.174 376.206 502.174 390.454 502.174C392.807 502.174 393.5 499.503 394.132 497.533C395.976 491.788 396.22 485.678 396.502 479.699C396.869 471.891 397.001 464.083 397.014 456.267C397.035 444.036 397.033 431.796 397.474 419.571C397.902 407.722 399.024 395.916 399.384 384.061C399.689 374.029 399.565 364.054 400.357 354.041C401.432 340.436 400.834 326.764 400.834 313.129C400.834 299.97 401.13 286.768 400.64 273.616C400.195 261.691 398.626 249.848 397.651 237.964C395.805 215.465 396.06 192.875 395.706 170.327C395.519 158.456 395.105 146.626 395.105 134.746C395.105 123.821 395.457 112.835 394.751 101.928C393.455 81.9036 392.219 61.5364 389.127 41.6938C387.807 33.2223 385.72 24.8226 383.026 16.6862C381.49 12.0461 376.372 -1.6951 377.915 2.94261" stroke="black" stroke-width="4" stroke-linecap="round"/>
</svg>
