<svg width="414" height="577" viewBox="0 0 414 577" fill="none" xmlns="http://www.w3.org/2000/svg">
<path d="M2 61.226C19.7333 61.7484 37.2264 64.5348 54.914 65.581C67.77 66.3414 80.6517 66.5847 93.5125 67.256C124.593 68.8784 155.916 67.859 187.032 67.859C216.466 67.859 245.899 67.859 275.333 67.859C296.012 67.859 316.176 69.0628 336.776 70.5725C350.21 71.5571 363.483 73.3007 376.947 74.0231C385.001 74.4552 393.808 73.3652 401.732 74.827C408.048 75.9925 412 76.7346 412 83.3026C412 100.093 411.019 116.655 409.592 133.385C407.199 161.436 407.786 189.547 407.786 217.671C407.786 247.085 407.786 276.498 407.786 305.911C407.786 335.636 408.835 365.563 406.581 395.222C404.719 419.742 403.671 444.376 401.364 468.855C399.591 487.657 397.222 506.399 395.443 525.202C394.028 540.166 391.958 555.157 390.961 570.126C390.601 575.545 390.792 574.983 386.112 574.983C367.009 574.983 347.784 569.836 328.782 567.747C282.558 562.666 235.586 562.869 189.106 561.583C167.307 560.98 145.593 560.511 123.783 560.511C112.2 560.511 100.516 560.047 88.9636 560.98C78.8266 561.799 69.4287 567.34 59.396 569.087C56.0817 569.665 52.5937 570.159 49.2279 570.159C34.0102 570.159 30.5934 541.899 29.0256 531.701C20.907 478.893 28.7471 426.13 37.4544 374.016C43.0977 340.241 48.9524 306.484 53.7768 272.578C58.2942 240.83 59.1953 208.969 59.1953 176.935C59.1953 154.273 57.709 131.867 56.3188 109.265C54.9516 87.0368 54.189 64.7805 52.5727 42.5665C51.7883 31.7868 51.0136 20.9978 48.9603 10.3729C48.7266 9.16337 46.4875 0.861151 47.7562 2.13186" stroke="black" stroke-width="3" stroke-linecap="round"/>
</svg>
