<svg width="2272" height="84" viewBox="0 0 2272 84" fill="none" xmlns="http://www.w3.org/2000/svg">
<path d="M1.51758 54.2823C77.9414 54.2823 155.88 60.2796 231.135 44.2529C289.094 31.9098 343.701 14.5356 402.953 7.30299C452.899 1.20632 505.173 4.62962 555.504 4.3998C609.275 4.15426 662.944 1.74552 716.764 2.02438C767.943 2.28957 818.812 10.2543 868.787 21.0272C914.893 30.9662 961.774 36.0088 1008.14 44.7808C1099.58 62.0794 1191.41 64.5603 1283.95 69.0622C1393.94 74.4132 1502.13 85.0281 1612.54 80.939C1658.07 79.2525 1703.7 81.0066 1749.25 80.4111C1787.45 79.9118 1825.63 69.645 1863.27 63.7837C1897.82 58.4023 1932.72 49.3336 1967.79 51.3791C2000.27 53.2739 2033.17 51.9069 2065.7 51.9069C2100.72 51.9069 2135.73 51.9069 2170.75 51.9069C2188.3 51.9069 2205.99 51.2859 2223.53 51.9069C2245.4 52.681 2255.09 61.6442 2269.98 75.6605" stroke="black" stroke-width="3" stroke-linecap="round"/>
</svg>
